<svg viewBox="0 0 1440 360" xmlns="http://www.w3.org/2000/svg" aria-hidden="true">
  <rect width="1440" height="360" fill="#044e5e"/>
  <!-- Far buildings -->
  <g fill="#0B2D2F">
    <rect x="80" y="160" width="40" height="120" rx="2"/>
    <rect x="140" y="190" width="28" height="90" rx="2"/>
    <rect x="200" y="170" width="60" height="120" rx="2"/>
    <rect x="280" y="182" width="36" height="108" rx="2"/>
    <rect x="340" y="150" width="82" height="140" rx="2"/>
    <rect x="440" y="182" width="26" height="108" rx="2"/>
    <rect x="980" y="182" width="36" height="108" rx="2"/>
    <rect x="1030" y="195" width="22" height="95" rx="2"/>
    <rect x="1060" y="160" width="80" height="130" rx="2"/>
    <rect x="1160" y="185" width="30" height="105" rx="2"/>
  </g>
  <!-- Sky Tower -->
  <g fill="#114348">
    <rect x="155" y="80" width="18" height="190" rx="6"/>
    <rect x="151" y="72" width="26" height="8"/>
    <rect x="157" y="60" width="14" height="12" rx="2"/>
    <rect x="162" y="36" width="4" height="24"/>
    <circle cx="164" cy="32" r="4"/>
  </g>
  <!-- Mid buildings -->
  <g fill="#114348">
    <rect x="260" y="140" width="70" height="150" rx="3"/>
    <rect x="350" y="158" width="110" height="132" rx="3"/>
    <rect x="520" y="130" width="90" height="160" rx="3"/>
    <path d="M640 110 q40 35 30 190 h-80 v-120 q50-5 50-70 z"/>
    <rect x="720" y="160" width="65" height="140" rx="3"/>
    <rect x="805" y="185" width="42" height="115" rx="3"/>
  </g>
  <!-- Bridge -->
  <path d="M1140 275 h240 v16 h-240 z" fill="#114348"/>
  <path d="M1140 275 q120 -70 240 0" stroke="#114348" stroke-width="12" fill="none"/>
  <g fill="#114348">
    <rect x="1180" y="275" width="10" height="20"/>
    <rect x="1240" y="275" width="10" height="20"/>
    <rect x="1300" y="275" width="10" height="20"/>
    <rect x="1360" y="275" width="10" height="20"/>
  </g>
  <!-- Foreground land/water -->
  <path d="M0 300 C 260 270 520 300 760 290 C 1040 278 1240 300 1440 288 V 360 H 0 Z" fill="#164C51"/>
  <g fill="#0B2F31">
    <ellipse cx="120" cy="338" rx="46" ry="8"/>
    <ellipse cx="320" cy="330" rx="40" ry="7"/>
    <ellipse cx="980" cy="334" rx="44" ry="8"/>
    <ellipse cx="1280" cy="342" rx="52" ry="9"/>
  </g>
</svg>
